# xmcd
#
# Track frame offsets:
#	150
#	13826
#	30045
#	41720
#	53180
#	68266
#	81395
#	91985
#	103155
#	115786
#	125057
#	138537
#	150087
#	165871
#	178391
#	192488
#	206462
#	224812
#	236625
#	254911
#	270232
#	286394
#
# Disc length: 3999 seconds
#
# Revision: 0
# Processed by: cddbd v1.5.2PL0 Copyright (c) Steve Scherf et al.
# Submitted via: dBpowerAMP V4.0
#
DISCID=3c0f9d16
DTITLE=Various Artist - 50 Years Of Easy Listening Country [CD1]
DYEAR=1995
DGENRE=Country
TTITLE0=Southern Nights - Glen Campbell
TTITLE1=Looking For Love - Johnny Lee
TTITLE2=Don't It Make My Brown Eyes Blue - Crystal Gayle
TTITLE3=A White Sports Coat (And A Pink Carnation) - Marty Robins
TTITLE4=Feels So Right - Alabama
TTITLE5=Here You Come Again - Dolly Parton
TTITLE6=He'll Have To Go - Jim Reeves
TTITLE7=Young Love - Sony James
TTITLE8=I Fall To Pieces - Patsy Cline
TTITLE9=Country Sunshine - Dottie West and The Jordanaires
TTITLE10=Anytime - Eddy Arnold and The Tennessee Playboys
TTITLE11=Crazy Arms - Ray Price
TTITLE12=The Closer You Get - Alabama
TTITLE13=Sombody's Knockin' - Terry Gibbs
TTITLE14=I. O. U. - Lou Greenwood
TTITLE15=I Love A Rainy Night - Eddie Rabbitt
TTITLE16=The Sweetest Thing (I've Ever Known) - Juice Newton
TTITLE17=Elvira - The Oakridge Boys
TTITLE18=I Believe In You - Don Williams
TTITLE19=Nobody - Sylvia
TTITLE20=I Wouldn't Have Missed It For The World - Ronnie Milsap
TTITLE21=Swingin' - John Anderson
EXTD=
EXTT0=
EXTT1=
EXTT2=
EXTT3=
EXTT4=
EXTT5=
EXTT6=
EXTT7=
EXTT8=
EXTT9=
EXTT10=
EXTT11=
EXTT12=
EXTT13=
EXTT14=
EXTT15=
EXTT16=
EXTT17=
EXTT18=
EXTT19=
EXTT20=
EXTT21=
PLAYORDER=
